<mxfile host="app.diagrams.net" modified="2024-04-15T18:59:51.231Z" agent="Mozilla/5.0 (Windows NT 10.0; Win64; x64) AppleWebKit/537.36 (KHTML, like Gecko) Chrome/123.0.0.0 Safari/537.36" etag="DLW_Dyb8y3IjoVZxWUM3" version="24.2.5" type="device">
  <diagram name="Page-1" id="74e2e168-ea6b-b213-b513-2b3c1d86103e">
    <mxGraphModel dx="2134" dy="420" grid="1" gridSize="10" guides="1" tooltips="1" connect="1" arrows="1" fold="1" page="1" pageScale="1" pageWidth="1100" pageHeight="850" background="none" math="0" shadow="0">
      <root>
        <mxCell id="0" />
        <mxCell id="1" parent="0" />
        <mxCell id="77e6c97f196da883-1" value="WXS Joint Calling Pipeline" style="swimlane;html=1;childLayout=stackLayout;startSize=20;rounded=0;shadow=0;labelBackgroundColor=none;strokeWidth=1;fontFamily=Verdana;fontSize=12;align=center;fillColor=#f5f5f5;fontColor=#333333;strokeColor=#666666;" parent="1" vertex="1">
          <mxGeometry x="-730" y="10" width="560" height="370" as="geometry" />
        </mxCell>
        <mxCell id="Nnj7Wq_yGs6EVmE-nwQ6-24" value="" style="edgeStyle=orthogonalEdgeStyle;rounded=0;orthogonalLoop=1;jettySize=auto;html=1;fillColor=#f5f5f5;strokeColor=#999999;" parent="77e6c97f196da883-1" edge="1">
          <mxGeometry relative="1" as="geometry">
            <mxPoint x="490" y="250" as="sourcePoint" />
          </mxGeometry>
        </mxCell>
        <mxCell id="Nnj7Wq_yGs6EVmE-nwQ6-13" value="" style="edgeStyle=orthogonalEdgeStyle;rounded=0;orthogonalLoop=1;jettySize=auto;html=1;strokeWidth=3;dashed=1;" parent="77e6c97f196da883-1" edge="1">
          <mxGeometry relative="1" as="geometry">
            <mxPoint x="225" y="217.5" as="sourcePoint" />
          </mxGeometry>
        </mxCell>
        <mxCell id="Nnj7Wq_yGs6EVmE-nwQ6-19" value="" style="edgeStyle=orthogonalEdgeStyle;rounded=0;orthogonalLoop=1;jettySize=auto;html=1;fillColor=#f5f5f5;strokeColor=#999999;exitX=1;exitY=0.5;exitDx=0;exitDy=0;" parent="77e6c97f196da883-1" edge="1">
          <mxGeometry relative="1" as="geometry">
            <mxPoint x="360" y="175" as="sourcePoint" />
          </mxGeometry>
        </mxCell>
        <mxCell id="Nnj7Wq_yGs6EVmE-nwQ6-26" value="" style="edgeStyle=orthogonalEdgeStyle;rounded=0;orthogonalLoop=1;jettySize=auto;html=1;strokeWidth=3;" parent="77e6c97f196da883-1" edge="1">
          <mxGeometry relative="1" as="geometry">
            <mxPoint x="490" y="360" as="sourcePoint" />
          </mxGeometry>
        </mxCell>
        <mxCell id="Nnj7Wq_yGs6EVmE-nwQ6-32" value="" style="edgeStyle=orthogonalEdgeStyle;rounded=0;orthogonalLoop=1;jettySize=auto;html=1;strokeColor=#999999;" parent="77e6c97f196da883-1" edge="1">
          <mxGeometry relative="1" as="geometry">
            <mxPoint x="475" y="112.5" as="sourcePoint" />
          </mxGeometry>
        </mxCell>
        <mxCell id="Nnj7Wq_yGs6EVmE-nwQ6-37" value="" style="edgeStyle=orthogonalEdgeStyle;rounded=1;orthogonalLoop=1;jettySize=auto;html=1;strokeWidth=3;" parent="77e6c97f196da883-1" edge="1">
          <mxGeometry relative="1" as="geometry">
            <mxPoint x="730" y="425" as="sourcePoint" />
          </mxGeometry>
        </mxCell>
        <mxCell id="Nnj7Wq_yGs6EVmE-nwQ6-18" value="" style="edgeStyle=orthogonalEdgeStyle;rounded=1;orthogonalLoop=1;jettySize=auto;html=1;entryX=0;entryY=0.5;entryDx=0;entryDy=0;strokeWidth=3;" parent="77e6c97f196da883-1" edge="1">
          <mxGeometry relative="1" as="geometry">
            <Array as="points">
              <mxPoint x="310" y="360" />
            </Array>
            <mxPoint x="310" y="190" as="sourcePoint" />
          </mxGeometry>
        </mxCell>
        <mxCell id="Nnj7Wq_yGs6EVmE-nwQ6-34" value="" style="edgeStyle=orthogonalEdgeStyle;rounded=1;orthogonalLoop=1;jettySize=auto;html=1;strokeWidth=3;" parent="77e6c97f196da883-1" edge="1">
          <mxGeometry relative="1" as="geometry">
            <Array as="points">
              <mxPoint x="560" y="425" />
            </Array>
            <mxPoint x="560" y="375" as="sourcePoint" />
          </mxGeometry>
        </mxCell>
        <mxCell id="Nnj7Wq_yGs6EVmE-nwQ6-51" value="" style="edgeStyle=orthogonalEdgeStyle;rounded=1;orthogonalLoop=1;jettySize=auto;html=1;strokeWidth=3;dashed=1;" parent="77e6c97f196da883-1" edge="1">
          <mxGeometry relative="1" as="geometry">
            <mxPoint x="115" y="175" as="sourcePoint" />
          </mxGeometry>
        </mxCell>
        <mxCell id="xKvOOhsYieL9IacCuS3Y-114" value="Joint VCFs" style="swimlane;html=1;startSize=20;" parent="77e6c97f196da883-1" vertex="1">
          <mxGeometry y="20" width="140" height="350" as="geometry" />
        </mxCell>
        <mxCell id="xKvOOhsYieL9IacCuS3Y-130" value="Interval Joint VCF" style="rounded=1;whiteSpace=wrap;html=1;shadow=0;labelBackgroundColor=none;strokeWidth=3;fontFamily=Verdana;fontSize=12;align=center;fillColor=#ffe6cc;strokeColor=#d79b00;" parent="xKvOOhsYieL9IacCuS3Y-114" vertex="1">
          <mxGeometry x="20" y="65" width="100" height="30" as="geometry" />
        </mxCell>
        <mxCell id="xKvOOhsYieL9IacCuS3Y-132" value="Interval Joint VCF" style="rounded=1;whiteSpace=wrap;html=1;shadow=0;labelBackgroundColor=none;strokeWidth=3;fontFamily=Verdana;fontSize=12;align=center;fillColor=#ffe6cc;strokeColor=#d79b00;" parent="xKvOOhsYieL9IacCuS3Y-114" vertex="1">
          <mxGeometry x="20" y="225" width="100" height="30" as="geometry" />
        </mxCell>
        <mxCell id="xKvOOhsYieL9IacCuS3Y-131" value="Interval Joint VCF" style="rounded=1;whiteSpace=wrap;html=1;shadow=0;labelBackgroundColor=none;strokeWidth=3;fontFamily=Verdana;fontSize=12;align=center;fillColor=#ffe6cc;strokeColor=#d79b00;" parent="xKvOOhsYieL9IacCuS3Y-114" vertex="1">
          <mxGeometry x="20" y="145" width="100" height="30" as="geometry" />
        </mxCell>
        <mxCell id="xKvOOhsYieL9IacCuS3Y-136" value="VQSR Filtering" style="swimlane;html=1;startSize=20;" parent="77e6c97f196da883-1" vertex="1">
          <mxGeometry x="140" y="20" width="140" height="350" as="geometry" />
        </mxCell>
        <mxCell id="xKvOOhsYieL9IacCuS3Y-149" style="edgeStyle=orthogonalEdgeStyle;rounded=1;orthogonalLoop=1;jettySize=auto;html=1;exitX=0.5;exitY=1;exitDx=0;exitDy=0;entryX=0.5;entryY=0;entryDx=0;entryDy=0;" parent="xKvOOhsYieL9IacCuS3Y-136" source="xKvOOhsYieL9IacCuS3Y-145" target="xKvOOhsYieL9IacCuS3Y-147" edge="1">
          <mxGeometry relative="1" as="geometry" />
        </mxCell>
        <mxCell id="xKvOOhsYieL9IacCuS3Y-150" style="edgeStyle=orthogonalEdgeStyle;rounded=1;orthogonalLoop=1;jettySize=auto;html=1;exitX=0.5;exitY=1;exitDx=0;exitDy=0;entryX=0.5;entryY=0;entryDx=0;entryDy=0;" parent="xKvOOhsYieL9IacCuS3Y-136" source="xKvOOhsYieL9IacCuS3Y-145" target="xKvOOhsYieL9IacCuS3Y-148" edge="1">
          <mxGeometry relative="1" as="geometry" />
        </mxCell>
        <mxCell id="xKvOOhsYieL9IacCuS3Y-145" value="VariantRecalibrator" style="rhombus;whiteSpace=wrap;html=1;rounded=0;shadow=0;labelBackgroundColor=none;strokeWidth=1;fontFamily=Verdana;fontSize=12;align=center;fillColor=#dae8fc;strokeColor=#6c8ebf;" parent="xKvOOhsYieL9IacCuS3Y-136" vertex="1">
          <mxGeometry x="30" y="60" width="80" height="60" as="geometry" />
        </mxCell>
        <mxCell id="xKvOOhsYieL9IacCuS3Y-152" value="" style="edgeStyle=orthogonalEdgeStyle;rounded=1;orthogonalLoop=1;jettySize=auto;html=1;" parent="xKvOOhsYieL9IacCuS3Y-136" source="xKvOOhsYieL9IacCuS3Y-147" target="xKvOOhsYieL9IacCuS3Y-151" edge="1">
          <mxGeometry relative="1" as="geometry" />
        </mxCell>
        <mxCell id="xKvOOhsYieL9IacCuS3Y-147" value="SNP Recal Table" style="rounded=1;whiteSpace=wrap;html=1;shadow=0;labelBackgroundColor=none;strokeWidth=3;fontFamily=Verdana;fontSize=12;align=center;fillColor=#ffe6cc;strokeColor=#d79b00;" parent="xKvOOhsYieL9IacCuS3Y-136" vertex="1">
          <mxGeometry x="10" y="145" width="50" height="40" as="geometry" />
        </mxCell>
        <mxCell id="xKvOOhsYieL9IacCuS3Y-153" value="" style="edgeStyle=orthogonalEdgeStyle;rounded=1;orthogonalLoop=1;jettySize=auto;html=1;" parent="xKvOOhsYieL9IacCuS3Y-136" source="xKvOOhsYieL9IacCuS3Y-148" target="xKvOOhsYieL9IacCuS3Y-151" edge="1">
          <mxGeometry relative="1" as="geometry" />
        </mxCell>
        <mxCell id="xKvOOhsYieL9IacCuS3Y-148" value="INDEL Recal Table" style="rounded=1;whiteSpace=wrap;html=1;shadow=0;labelBackgroundColor=none;strokeWidth=3;fontFamily=Verdana;fontSize=12;align=center;fillColor=#ffe6cc;strokeColor=#d79b00;" parent="xKvOOhsYieL9IacCuS3Y-136" vertex="1">
          <mxGeometry x="80" y="145" width="50" height="40" as="geometry" />
        </mxCell>
        <mxCell id="xKvOOhsYieL9IacCuS3Y-161" style="edgeStyle=orthogonalEdgeStyle;rounded=1;orthogonalLoop=1;jettySize=auto;html=1;exitX=0.5;exitY=1;exitDx=0;exitDy=0;entryX=0.5;entryY=0;entryDx=0;entryDy=0;" parent="xKvOOhsYieL9IacCuS3Y-136" source="xKvOOhsYieL9IacCuS3Y-151" target="xKvOOhsYieL9IacCuS3Y-154" edge="1">
          <mxGeometry relative="1" as="geometry" />
        </mxCell>
        <mxCell id="xKvOOhsYieL9IacCuS3Y-151" value="ApplyVQSR" style="rhombus;whiteSpace=wrap;html=1;rounded=0;shadow=0;labelBackgroundColor=none;strokeWidth=1;fontFamily=Verdana;fontSize=12;align=center;fillColor=#dae8fc;strokeColor=#6c8ebf;" parent="xKvOOhsYieL9IacCuS3Y-136" vertex="1">
          <mxGeometry x="30" y="215" width="80" height="60" as="geometry" />
        </mxCell>
        <mxCell id="xKvOOhsYieL9IacCuS3Y-154" value="Filter from VQSR" style="rounded=1;whiteSpace=wrap;html=1;shadow=0;labelBackgroundColor=none;strokeWidth=1;fontFamily=Verdana;fontSize=12;align=center;fillColor=#ffe6cc;strokeColor=#d79b00;" parent="xKvOOhsYieL9IacCuS3Y-136" vertex="1">
          <mxGeometry x="20" y="285" width="100" height="30" as="geometry" />
        </mxCell>
        <mxCell id="xKvOOhsYieL9IacCuS3Y-167" value="Hard Filtering" style="swimlane;html=1;startSize=20;" parent="77e6c97f196da883-1" vertex="1">
          <mxGeometry x="280" y="20" width="140" height="350" as="geometry" />
        </mxCell>
        <mxCell id="xKvOOhsYieL9IacCuS3Y-163" style="edgeStyle=orthogonalEdgeStyle;rounded=1;orthogonalLoop=1;jettySize=auto;html=1;exitX=0.5;exitY=1;exitDx=0;exitDy=0;entryX=0.5;entryY=0;entryDx=0;entryDy=0;" parent="xKvOOhsYieL9IacCuS3Y-167" source="xKvOOhsYieL9IacCuS3Y-155" target="xKvOOhsYieL9IacCuS3Y-156" edge="1">
          <mxGeometry relative="1" as="geometry" />
        </mxCell>
        <mxCell id="xKvOOhsYieL9IacCuS3Y-155" value="DP Filter" style="rounded=1;whiteSpace=wrap;html=1;shadow=0;labelBackgroundColor=none;strokeWidth=1;fontFamily=Verdana;fontSize=12;align=center;fillColor=#ffe6cc;strokeColor=#d79b00;" parent="xKvOOhsYieL9IacCuS3Y-167" vertex="1">
          <mxGeometry x="20" y="130" width="100" height="20" as="geometry" />
        </mxCell>
        <mxCell id="xKvOOhsYieL9IacCuS3Y-164" style="edgeStyle=orthogonalEdgeStyle;rounded=1;orthogonalLoop=1;jettySize=auto;html=1;exitX=0.5;exitY=1;exitDx=0;exitDy=0;entryX=0.5;entryY=0;entryDx=0;entryDy=0;" parent="xKvOOhsYieL9IacCuS3Y-167" source="xKvOOhsYieL9IacCuS3Y-156" target="xKvOOhsYieL9IacCuS3Y-157" edge="1">
          <mxGeometry relative="1" as="geometry" />
        </mxCell>
        <mxCell id="xKvOOhsYieL9IacCuS3Y-156" value="LCR Filter" style="rounded=1;whiteSpace=wrap;html=1;shadow=0;labelBackgroundColor=none;strokeWidth=1;fontFamily=Verdana;fontSize=12;align=center;fillColor=#ffe6cc;strokeColor=#d79b00;" parent="xKvOOhsYieL9IacCuS3Y-167" vertex="1">
          <mxGeometry x="20" y="170" width="100" height="20" as="geometry" />
        </mxCell>
        <mxCell id="xKvOOhsYieL9IacCuS3Y-165" style="edgeStyle=orthogonalEdgeStyle;rounded=1;orthogonalLoop=1;jettySize=auto;html=1;exitX=0.5;exitY=1;exitDx=0;exitDy=0;entryX=0.5;entryY=0;entryDx=0;entryDy=0;" parent="xKvOOhsYieL9IacCuS3Y-167" source="xKvOOhsYieL9IacCuS3Y-157" target="xKvOOhsYieL9IacCuS3Y-158" edge="1">
          <mxGeometry relative="1" as="geometry" />
        </mxCell>
        <mxCell id="xKvOOhsYieL9IacCuS3Y-157" value="Non-Variant Filter" style="rounded=1;whiteSpace=wrap;html=1;shadow=0;labelBackgroundColor=none;strokeWidth=1;fontFamily=Verdana;fontSize=12;align=center;fillColor=#ffe6cc;strokeColor=#d79b00;" parent="xKvOOhsYieL9IacCuS3Y-167" vertex="1">
          <mxGeometry x="20" y="200" width="100" height="30" as="geometry" />
        </mxCell>
        <mxCell id="xKvOOhsYieL9IacCuS3Y-166" style="edgeStyle=orthogonalEdgeStyle;rounded=1;orthogonalLoop=1;jettySize=auto;html=1;exitX=0.5;exitY=1;exitDx=0;exitDy=0;entryX=0.5;entryY=0;entryDx=0;entryDy=0;" parent="xKvOOhsYieL9IacCuS3Y-167" source="xKvOOhsYieL9IacCuS3Y-158" target="xKvOOhsYieL9IacCuS3Y-159" edge="1">
          <mxGeometry relative="1" as="geometry" />
        </mxCell>
        <mxCell id="xKvOOhsYieL9IacCuS3Y-158" value="Allele Frequency Filter" style="rounded=1;whiteSpace=wrap;html=1;shadow=0;labelBackgroundColor=none;strokeWidth=1;fontFamily=Verdana;fontSize=12;align=center;fillColor=#ffe6cc;strokeColor=#d79b00;" parent="xKvOOhsYieL9IacCuS3Y-167" vertex="1">
          <mxGeometry x="20" y="240" width="100" height="30" as="geometry" />
        </mxCell>
        <mxCell id="xKvOOhsYieL9IacCuS3Y-159" value="Allele Balance Filter" style="rounded=1;whiteSpace=wrap;html=1;shadow=0;labelBackgroundColor=none;strokeWidth=1;fontFamily=Verdana;fontSize=12;align=center;fillColor=#ffe6cc;strokeColor=#d79b00;" parent="xKvOOhsYieL9IacCuS3Y-167" vertex="1">
          <mxGeometry x="20" y="280" width="100" height="30" as="geometry" />
        </mxCell>
        <mxCell id="Df_jU1oATI1a2aaqRXeZ-1" value="Recombine" style="swimlane;html=1;startSize=20;" parent="77e6c97f196da883-1" vertex="1">
          <mxGeometry x="420" y="20" width="140" height="350" as="geometry" />
        </mxCell>
        <mxCell id="Df_jU1oATI1a2aaqRXeZ-2" value="Cleaned Chr Joint VCF" style="rounded=1;whiteSpace=wrap;html=1;shadow=0;labelBackgroundColor=none;strokeWidth=3;fontFamily=Verdana;fontSize=12;align=center;fillColor=#ffe6cc;strokeColor=#d79b00;" parent="Df_jU1oATI1a2aaqRXeZ-1" vertex="1">
          <mxGeometry x="20" y="162" width="100" height="30" as="geometry" />
        </mxCell>
        <mxCell id="xKvOOhsYieL9IacCuS3Y-162" style="edgeStyle=orthogonalEdgeStyle;rounded=1;orthogonalLoop=1;jettySize=auto;html=1;exitX=0.5;exitY=1;exitDx=0;exitDy=0;entryX=0.5;entryY=0;entryDx=0;entryDy=0;" parent="77e6c97f196da883-1" source="xKvOOhsYieL9IacCuS3Y-154" target="xKvOOhsYieL9IacCuS3Y-155" edge="1">
          <mxGeometry relative="1" as="geometry" />
        </mxCell>
        <mxCell id="Df_jU1oATI1a2aaqRXeZ-5" style="edgeStyle=orthogonalEdgeStyle;rounded=1;orthogonalLoop=1;jettySize=auto;html=1;exitX=0.5;exitY=1;exitDx=0;exitDy=0;entryX=0;entryY=0.5;entryDx=0;entryDy=0;" parent="77e6c97f196da883-1" source="xKvOOhsYieL9IacCuS3Y-159" target="Df_jU1oATI1a2aaqRXeZ-2" edge="1">
          <mxGeometry relative="1" as="geometry">
            <mxPoint x="940" y="350" as="sourcePoint" />
            <mxPoint x="1080" y="100" as="targetPoint" />
          </mxGeometry>
        </mxCell>
        <mxCell id="0yh00pbvx_HvTSYkscYO-2" style="edgeStyle=orthogonalEdgeStyle;rounded=1;orthogonalLoop=1;jettySize=auto;html=1;exitX=1;exitY=0.5;exitDx=0;exitDy=0;entryX=0.5;entryY=0;entryDx=0;entryDy=0;" edge="1" parent="77e6c97f196da883-1" source="xKvOOhsYieL9IacCuS3Y-130" target="xKvOOhsYieL9IacCuS3Y-145">
          <mxGeometry relative="1" as="geometry">
            <mxPoint x="-60" y="120" as="sourcePoint" />
            <mxPoint x="80" y="-65" as="targetPoint" />
          </mxGeometry>
        </mxCell>
        <mxCell id="0yh00pbvx_HvTSYkscYO-3" style="edgeStyle=orthogonalEdgeStyle;rounded=1;orthogonalLoop=1;jettySize=auto;html=1;exitX=1;exitY=0.5;exitDx=0;exitDy=0;entryX=0.5;entryY=0;entryDx=0;entryDy=0;" edge="1" parent="77e6c97f196da883-1" source="xKvOOhsYieL9IacCuS3Y-131" target="xKvOOhsYieL9IacCuS3Y-145">
          <mxGeometry relative="1" as="geometry">
            <mxPoint x="-40" y="110" as="sourcePoint" />
            <mxPoint x="50" y="90" as="targetPoint" />
          </mxGeometry>
        </mxCell>
        <mxCell id="0yh00pbvx_HvTSYkscYO-4" style="edgeStyle=orthogonalEdgeStyle;rounded=1;orthogonalLoop=1;jettySize=auto;html=1;exitX=1;exitY=0.5;exitDx=0;exitDy=0;entryX=0.5;entryY=0;entryDx=0;entryDy=0;" edge="1" parent="77e6c97f196da883-1" source="xKvOOhsYieL9IacCuS3Y-132" target="xKvOOhsYieL9IacCuS3Y-145">
          <mxGeometry relative="1" as="geometry">
            <mxPoint x="110" y="200" as="sourcePoint" />
            <mxPoint x="200" y="180" as="targetPoint" />
          </mxGeometry>
        </mxCell>
        <mxCell id="xKvOOhsYieL9IacCuS3Y-1" style="edgeStyle=orthogonalEdgeStyle;rounded=0;orthogonalLoop=1;jettySize=auto;html=1;exitX=1;exitY=0.5;exitDx=0;exitDy=0;" parent="1" edge="1">
          <mxGeometry relative="1" as="geometry">
            <mxPoint x="215" y="155" as="targetPoint" />
            <mxPoint x="215" y="155" as="sourcePoint" />
          </mxGeometry>
        </mxCell>
      </root>
    </mxGraphModel>
  </diagram>
</mxfile>
